# xmcd
#
# Track frame offsets:
#	150
#	15277
#	27950
#	43902
#	58495
#	73742
#	87215
#	102860
#	118745
#
# Disc length: 2302 seconds
#
# Revision: 0
# Processed by: cddbd v1.5.2PL0 Copyright (c) Steve Scherf et al.
# Submitted via: EasyCDDAExtractor 10.0.6.1
#
DISCID=7708fc09
DTITLE=Various Artist - CDX Vol.22 December
DYEAR=1991
DGENRE=Country
TTITLE0=Dolly Parton - Country Road
TTITLE1=Alan Jackson - Dallas
TTITLE2=Keith Palmer - Forgotten But Not Gone
TTITLE3=Reba McEntire - Is There Life Out There
TTITLE4=B.B Watson - Lover Not A Fighter
TTITLE5=George Strait - Lovesick Blues
TTITLE6=John MeEuen - Return To Dismal Swamp
TTITLE7=Lee Roy Parnell - The Rock
TTITLE8=Interview - Interview
EXTD=
EXTT0=
EXTT1=
EXTT2=
EXTT3=
EXTT4=
EXTT5=
EXTT6=
EXTT7=
EXTT8=
PLAYORDER=
